<?xml version="1.0" encoding="iso-8859-1"?>
<!-- Generator: Adobe Illustrator 19.0.0, SVG Export Plug-In . SVG Version: 6.00 Build 0)  -->
<svg version="1.1" id="Layer_1" xmlns="http://www.w3.org/2000/svg" xmlns:xlink="http://www.w3.org/1999/xlink" x="0px" y="0px"
	 viewBox="0 0 467.022 467.022" style="enable-background:new 0 0 467.022 467.022;" xml:space="preserve">
<g>
	<g>
		<g>
			<path d="M467.022,104.127l-45.29-89.287H317.755l-41.448,82.895H190.22l-21.458-32.187l-12.48,8.32l21.185,31.778l-37.188,69.062
				h-80.09l-15.578-25.964l-12.863,7.718l15.453,25.756L0,261.281l45.446,88.296h94.951l38.83,68.214l-23.786,23.786l10.607,10.606
				l25.632-25.632h91.253l43.816-76.974h43.008v-15h-42.734l-37.634-75.266l37.478-69.602h86.011l15.578,25.964l12.863-7.717
				l-15.584-25.975L467.022,104.127z M140.122,334.576H54.597L17.148,261.82L60.2,189.708h80.078l37.478,69.603L140.122,334.576z
				 M313.89,341.846l-39.676,69.703h-81.279l-39.676-69.703l37.582-75.166h85.467L313.89,341.846z M276.463,251.682h-85.777
				l-37.408-69.474l37.408-69.474h85.777l37.409,69.474L276.463,251.682z M412.614,174.708h-85.746l-37.478-69.602l37.634-75.266
				h85.497l37.604,74.134L412.614,174.708z"/>
			<polygon points="327.524,84.117 340.94,90.826 350.71,71.286 369.759,71.286 369.759,56.286 341.438,56.286 			"/>
			<polygon points="197.261,161.091 210.677,167.799 220.446,148.26 239.495,148.26 239.495,133.26 211.175,133.26 			"/>
			<polygon points="55.155,238.065 68.571,244.773 78.341,225.234 97.39,225.234 97.39,210.234 69.071,210.234 			"/>
			<polygon points="191.34,320.958 204.756,327.667 214.525,308.128 233.574,308.128 233.574,293.128 205.254,293.128 			"/>
		</g>
	</g>
</g>
<g>
</g>
<g>
</g>
<g>
</g>
<g>
</g>
<g>
</g>
<g>
</g>
<g>
</g>
<g>
</g>
<g>
</g>
<g>
</g>
<g>
</g>
<g>
</g>
<g>
</g>
<g>
</g>
<g>
</g>
</svg>
