<?xml version="1.0" encoding="iso-8859-1"?>
<!-- Generator: Adobe Illustrator 19.0.0, SVG Export Plug-In . SVG Version: 6.00 Build 0)  -->
<svg version="1.1" id="Layer_1" xmlns="http://www.w3.org/2000/svg" xmlns:xlink="http://www.w3.org/1999/xlink" x="0px" y="0px"
	 viewBox="0 0 512 512" style="enable-background:new 0 0 512 512;" xml:space="preserve">
<g transform="translate(1 1)">
	<g>
		<g>
			<path d="M468.333-1H41.667C17.773-1-1,17.773-1,41.667V357.4v34.133c0,23.893,18.773,42.667,42.667,42.667h150.756
				l-19.911,59.733h-11.378c-5.12,0-8.533,3.413-8.533,8.533s3.413,8.533,8.533,8.533H178.2h153.6h17.067
				c5.12,0,8.533-3.413,8.533-8.533s-3.413-8.533-8.533-8.533h-11.378L317.578,434.2h150.756c23.893,0,42.667-18.773,42.667-42.667
				V357.4V41.667C511,17.773,492.227-1,468.333-1z M16.067,41.667c0-14.507,11.093-25.6,25.6-25.6h426.667
				c14.507,0,25.6,11.093,25.6,25.6v307.2H16.067V41.667z M319.853,493.933H190.147l19.627-59.733h90.453L319.853,493.933z
				 M493.933,391.533c0,14.507-11.093,25.6-25.6,25.6H306.201c0,0-0.001,0-0.001,0H203.8c0,0-0.001,0-0.001,0H41.667
				c-14.507,0-25.6-11.093-25.6-25.6v-25.6h477.867V391.533z"/>
			<path d="M255,101.4c18.773,0,34.133-15.36,34.133-34.133S273.773,33.133,255,33.133c-18.773,0-34.133,15.36-34.133,34.133
				S236.227,101.4,255,101.4z M255,50.2c9.387,0,17.067,7.68,17.067,17.067S264.387,84.333,255,84.333s-17.067-7.68-17.067-17.067
				S245.613,50.2,255,50.2z"/>
			<path d="M459.8,41.667H323.267c-5.12,0-8.533,3.413-8.533,8.533s3.413,8.533,8.533,8.533H459.8c5.12,0,8.533-3.413,8.533-8.533
				S464.92,41.667,459.8,41.667z"/>
			<path d="M365.933,92.867c5.12,0,8.533-3.413,8.533-8.533c0-5.12-3.413-8.533-8.533-8.533h-42.667
				c-5.12,0-8.533,3.413-8.533,8.533c0,5.12,3.413,8.533,8.533,8.533H365.933z"/>
			<path d="M459.8,75.8h-59.733c-5.12,0-8.533,3.413-8.533,8.533c0,5.12,3.413,8.533,8.533,8.533H459.8
				c5.12,0,8.533-3.413,8.533-8.533C468.333,79.213,464.92,75.8,459.8,75.8z"/>
			<path d="M69.827,101.4H178.2c15.36,0,28.16-12.8,28.16-29.013V61.293c0-15.36-12.8-28.16-28.16-28.16H69.827
				c-15.36,0-28.16,12.8-28.16,28.16V73.24C41.667,88.6,54.467,101.4,69.827,101.4z M58.733,61.293
				c0-5.973,5.12-11.093,11.093-11.093H178.2c5.973,0,11.093,5.12,11.093,11.093V73.24c0,5.973-5.12,11.093-11.093,11.093H69.827
				c-5.973,0-11.093-5.12-11.093-11.947V61.293z"/>
			<path d="M459.8,127H50.2c-5.12,0-8.533,3.413-8.533,8.533s3.413,8.533,8.533,8.533h409.6c5.12,0,8.533-3.413,8.533-8.533
				S464.92,127,459.8,127z"/>
			<path d="M186.733,169.667H50.2c-5.12,0-8.533,3.413-8.533,8.533v136.533c0,5.12,3.413,8.533,8.533,8.533h34.133H152.6h34.133
				c5.12,0,8.533-3.413,8.533-8.533V178.2C195.267,173.08,191.853,169.667,186.733,169.667z M92.867,306.2v-8.533
				c0-14.507,11.093-25.6,25.6-25.6s25.6,11.093,25.6,25.6v8.533H92.867z M101.4,237.933c0-9.387,7.68-17.067,17.067-17.067
				s17.067,7.68,17.067,17.067S127.853,255,118.467,255S101.4,247.32,101.4,237.933z M178.2,306.2h-17.067v-8.533
				c0-14.949-7.35-27.893-18.703-35.49c6.269-6.198,10.17-14.786,10.17-24.243c0-18.773-15.36-34.133-34.133-34.133
				s-34.133,15.36-34.133,34.133c0,9.458,3.901,18.046,10.17,24.243C83.15,269.773,75.8,282.718,75.8,297.667v8.533H58.733V186.733
				H178.2V306.2z"/>
			<path d="M459.8,169.667H280.6c-5.12,0-8.533,3.413-8.533,8.533s3.413,8.533,8.533,8.533h179.2c5.12,0,8.533-3.413,8.533-8.533
				S464.92,169.667,459.8,169.667z"/>
			<path d="M220.867,186.733h25.6c5.12,0,8.533-3.413,8.533-8.533s-3.413-8.533-8.533-8.533h-25.6c-5.12,0-8.533,3.413-8.533,8.533
				S215.747,186.733,220.867,186.733z"/>
			<path d="M459.8,272.067h-85.333c-5.12,0-8.533,3.413-8.533,8.533s3.413,8.533,8.533,8.533H459.8c5.12,0,8.533-3.413,8.533-8.533
				S464.92,272.067,459.8,272.067z"/>
			<path d="M220.867,289.133h119.467c5.12,0,8.533-3.413,8.533-8.533s-3.413-8.533-8.533-8.533H220.867
				c-5.12,0-8.533,3.413-8.533,8.533S215.747,289.133,220.867,289.133z"/>
			<path d="M459.8,306.2H280.6c-5.12,0-8.533,3.413-8.533,8.533s3.413,8.533,8.533,8.533h179.2c5.12,0,8.533-3.413,8.533-8.533
				S464.92,306.2,459.8,306.2z"/>
			<path d="M246.467,306.2h-25.6c-5.12,0-8.533,3.413-8.533,8.533s3.413,8.533,8.533,8.533h25.6c5.12,0,8.533-3.413,8.533-8.533
				S251.587,306.2,246.467,306.2z"/>
			<path d="M383,220.867c5.12,0,8.533-3.413,8.533-8.533c0-5.12-3.413-8.533-8.533-8.533h-17.067c-5.12,0-8.533,3.413-8.533,8.533
				c0,5.12,3.413,8.533,8.533,8.533H383z"/>
			<path d="M459.8,203.8h-42.667c-5.12,0-8.533,3.413-8.533,8.533c0,5.12,3.413,8.533,8.533,8.533H459.8
				c5.12,0,8.533-3.413,8.533-8.533C468.333,207.213,464.92,203.8,459.8,203.8z"/>
			<path d="M220.867,220.867H331.8c5.12,0,8.533-3.413,8.533-8.533c0-5.12-3.413-8.533-8.533-8.533H220.867
				c-5.12,0-8.533,3.413-8.533,8.533C212.333,217.453,215.747,220.867,220.867,220.867z"/>
			<path d="M459.8,237.933H323.267c-5.12,0-8.533,3.413-8.533,8.533s3.413,8.533,8.533,8.533H459.8c5.12,0,8.533-3.413,8.533-8.533
				S464.92,237.933,459.8,237.933z"/>
			<path d="M220.867,255h68.267c5.12,0,8.533-3.413,8.533-8.533s-3.413-8.533-8.533-8.533h-68.267c-5.12,0-8.533,3.413-8.533,8.533
				S215.747,255,220.867,255z"/>
		</g>
	</g>
</g>
<g>
</g>
<g>
</g>
<g>
</g>
<g>
</g>
<g>
</g>
<g>
</g>
<g>
</g>
<g>
</g>
<g>
</g>
<g>
</g>
<g>
</g>
<g>
</g>
<g>
</g>
<g>
</g>
<g>
</g>
</svg>
